/* XPM */
static const char *ADD_XPM[] = {
"16 16 8 1",
"  c None",
"# c #5A7C9D",
"+ c #7294AD",
". c #A1C3D9",
"@ c #809191",
"- c #FFFFFF",
"$ c #308633",
", c #11D522",
" ++##########   ",
" #.++.......#   ",
" #...++.@@@@@@@ ",
" #....+.@----@-@",
" #....+.@----@@@",
" #....+@@@@----@",
" #....+--@-@---@",
" #....+--@@@---@",
" #....+----@---@",
" #....+----$$$-@",
" #....+----$,$-@",
" #....+--$$$,$$$",
" #....+--$,,,,,$",
" ++...+--$$$,$$$",
"   ++.+@@@@$,$  ",
"     ++    $$$  "
};
