/* XPM */
static const char *ADD_XPM[] = {
"16 16 7 1",
"  c None",
"# c #567F7F",
"- c #FFFFFF",
"+ c #809191",
". c #D3E5E5",
"$ c #308633",
", c #11D522",
"  ##############",
"  #------------#",
"##############-#",
"#------------#-#",
"#-++++++++++-#-#",
"#-+..+..+..+-#-#",
"#-+..+..+..+-#-#",
"#-++++++++++-#-#",
"#-+..+..+..+-#-#",
"#-+..+..+..$$$-#",
"#-+++++++++$,$-#",
"#-+..+..+$$$,$$$",
"#-+..+..+$,,,,,$",
"#-+++++++$$$,$$$",
"#----------$,$  ",
"###########$$$  "
};
