/* XPM */
static const char *APP_ICON_XPM[] = {
"16 16 6 1",
". c #f8f3d9",
"- c #f59c46",
"+ c #a75a2d",
"# c #000000",
"* c #45e045",
"~ c #2665ad",
"----------------",
"-..............-",
"-.------------+-",
"-.------------+-",
"-.--####---##-+-",
"-.-#****###~#-+-",
"-.-#******~~#-+-",
"-.-#*~~~**~*#-+-",
"-.-#**~~~~**#-+-",
"-.-#~~*~~~**#-+-",
"-.-#~***~~~*#-+-",
"-.-#*###*~**#-+-",
"-.-##---####--+-",
"-.------------+-",
"-.+++++++++++++-",
"----------------"
};
