/* XPM */
static const char *APP_XPM[] = {
"48 48 7 1",
"# c #000000",
"~ c #2665ad",
"^ c #2f8e6a",
"* c #45e045",
"+ c #a75a2d",
"- c #f59c46",
". c #f8f3d9",
"------------------------------------------------",
"------------------------------------------------",
"------------------------------------------------",
"---..........................................---",
"---.........................................+---",
"---..--------------------------------------++---",
"---..--------------------------------------++---",
"---..--------------------------------------++---",
"---..--------------------------------------++---",
"---..--------------------------------------++---",
"---..--------########---------------####---++---",
"---..------##********##------------#~~~#---++---",
"---..-----#************#-----------#~~~#---++---",
"---..----#**************#---------#~~~~#---++---",
"---..----#***************##-----##~~~~~#---++---",
"---..---#******************#####~~~~~~~#---++---",
"---..---#**********************^~~~~~~~#---++---",
"---..---#*****^^^~~~^^^********^~~~~~~~#---++---",
"---..---#*****^~~~~~~~^********~~~~~~~~#---++---",
"---..---#****^~~~~~~~~~^*******~~~~^^^^#---++---",
"---..---#****^~~~~~~~~~~^^***^^~~^^^***#---++---",
"---..---#*****^~~~~~~~~~~^***^~~^******#---++---",
"---..---#*****^^^~~~~~~~~~^^^~~~^******#---++---",
"---..---#********^~~~~~~~~~~~~~^*******#---++---",
"---..---#********^~~~~~~~~~~~~~^*******#---++---",
"---..---#********^~~~~~~~~~~~^^********#---++---",
"---..---#^^******^~~~~~~~~~~~^*********#---++---",
"---..---#~^*****^~~^^~~~~~~~~^*********#---++---",
"---..---#~~^^^^~~~^**^~~~~~~~^*********#---++---",
"---..---#~~~~~~~~^****~~~~~~~~^^*******#---++---",
"---..---#~~~~~~~~*****~~~~~~~~~^*******#---++---",
"---..---#~~~~~~~^*****~~~~~~~~~~^******#---++---",
"---..---#~~~~~^^^*****^~~~~~~~~~^******#---++---",
"---..---#~~~~^*********^~~~~~~~~^******#---++---",
"---..---#~~^^***#####***^~~~~~~^*******#---++---",
"---..---#~^***##+++++##**^~~~~^^******#----++---",
"---..---#^^**#+++-----+#**^~~^********#----++---",
"---..---#***#++--------+#*^~~^*******#-----++---",
"---..---#***#+-----------##^~~^****##------++---",
"---..---####---------------########--------++---",
"---..--------------------------------------++---",
"---..--------------------------------------++---",
"---..--------------------------------------++---",
"---..++++++++++++++++++++++++++++++++++++++++---",
"---.+++++++++++++++++++++++++++++++++++++++++---",
"------------------------------------------------",
"------------------------------------------------",
"------------------------------------------------"
};
