/* XPM */
static const char *BOLD_XPM[] = {
"16 16 6 1",
"# c #FFFFFF",
"= c #E6194B",
"+ c #900F2F",
"- c #AF2F4E",
", c #CF4F6E",
". c #EF6E8E",
"....,,,,....,,,,",
".####,,,....,,,,",
".#==#,,,....,,,,",
".##=#,,,....,,,,",
"--#=#+++----++++",
"--#=#+++----++++",
"-##=##++----++++",
"-#===#++----++++",
".#####,,....,,,,",
"....,,,,....,,,,",
"....,,,,....,,,,",
"....,,,,....,,,,",
"----++++----++++",
"----++++----++++",
"----++++----++++",
"----++++----++++"
};
