/* XPM */
static const char *ERROR_XPM[] = {
"48 48 4 1",
"  c None",
"# c #000000",
". c #FF0000",
"= c #FFFFFF",
"                   ##########                   ",
"                ###..........###                ",
"              ##................##              ",
"            ##....................##            ",
"          ##........................##          ",
"         #............................#         ",
"        #..............................#        ",
"       #................................#       ",
"      #..................................#      ",
"     #....................................#     ",
"    #........==..................==........#    ",
"    #.......====................====.......#    ",
"   #.......======..............======.......#   ",
"   #......========............========......#   ",
"  #.......=========..........=========.......#  ",
"  #........=========........=========........#  ",
" #..........=========......=========..........# ",
" #...........=========....=========...........# ",
" #............=========..=========............# ",
"#..............==================..............#",
"#...............================...............#",
"#................==============................#",
"#.................============.................#",
"#..................==========..................#",
"#..................==========..................#",
"#.................============.................#",
"#................==============................#",
"#...............================...............#",
"#..............==================..............#",
" #............=========..=========............# ",
" #...........=========....=========...........# ",
" #..........=========......=========..........# ",
"  #........=========........=========........#  ",
"  #.......=========..........=========.......#  ",
"   #......========............========......#   ",
"   #.......======..............======.......#   ",
"    #.......====................====.......#    ",
"    #........==..................==........#    ",
"     #....................................#     ",
"      #..................................#      ",
"       #................................#       ",
"        #..............................#        ",
"         #............................#         ",
"          ##........................##          ",
"            ##....................##            ",
"              ##................##              ",
"                ###..........###                ",
"                   ##########                   "
};
