/* XPM */
static const char *INPUT_XPM[] = {
"16 16 11 1",
"  c None",
"# c #7D4433",
". c #FEFEFE",
"@ c #7E5C32",
"+ c #AE8D33",
"- c #CEAC13",
"^ c #E6CD2E",
"* c #FFFF74",
"$ c #225D8D",
"= c #1C79C1",
", c #38C5FF",
"                ",
"                ",
"################",
"#..............#",
"#.***^--------.#",
"#.***^--------.#",
"#.^^^---------.#",
"#.-----+@@+---.#",
"#.----+@@@@+--.#",
"#.---+@@@@@@=-.#",
"#.-+@@@@@@@@$=.#",
"#.@@@@@@$$$$$,$#",
"#.......$,,,,,,$",
"########$$$$$,$#",
"            $=  ",
"            =   "
};
