/* XPM */
static const char *LOAD_XPM[] = {
"16 16 8 1",
"  c None",
"# c #567F7F",
"- c #FFFFFF",
"+ c #809191",
". c #D3E5E5",
"$ c #225D8D",
"= c #1C79C1",
", c #38C5FF",
"                ",
" ############## ",
" #------------# ",
" #-++++++++++-# ",
" #-+..+..+..+-# ",
" #-+..+..+..+-# ",
" #-++++++++++-# ",
" #-+..+..+..+-# ",
" #-+..+..+..+-# ",
" #-++++++=++=-# ",
" #-+..+..$=.$=# ",
" #-+..+..$,$$,$ ",
" #-++++++$,,$,,$",
" #-------$,$$,$ ",
" ########$=#$=# ",
"         =  =   "
};
