/* XPM */
static const char *LOAD_XPM[] = {
"16 16 9 1",
"  c None",
"# c #5A7C9D",
"+ c #7294AD",
". c #A1C3D9",
"@ c #809191",
"- c #FFFFFF",
"$ c #225D8D",
"= c #1C79C1",
", c #38C5FF",
" ++##########   ",
" #.++.......#   ",
" #...++@@@@@#   ",
" #....+----@@   ",
" #....+----@-@  ",
" #....+----@@@@ ",
" #....+-------@ ",
" #....+--=--=-@ ",
" #....+--$=-$=@ ",
" #....+--$,$$,$ ",
" #....+--$,,$,,$",
" #....+--$,$$,$ ",
" #....+--$=-$=@ ",
" ++...+--=--=-@ ",
"   ++.+@@@@@@@@ ",
"     ++         "
};
