/* XPM */
static const char *OBP1_XPM[] = {
"16 16 2 1",
"  c None",
"# c #006868",
"                ",
"                ",
"                ",
" ##  ###  ###  #",
"#### #### #### #",
"#  # #  # #  # #",
"#  # #  # #  # #",
"#  # ###  #### #",
"#  # ###  ###  #",
"#  # #  # #    #",
"#  # #  # #    #",
"#### #### #    #",
" ##  ###  #    #",
"                ",
"                ",
"                "
};
