/* XPM */
static const char *OPEN_DISABLED_XPM[] = {
"16 16 9 1",
"  c None",
"# c #8F8F8F",
"+ c #A4A4A4",
". c #DDDDDD",
"@ c #ACACAC",
"- c #F4F4F4",
"$ c #878787",
"= c #939393",
", c #B9B9B9",
" ++##########   ",
" #.++.......#   ",
" #...++@@@@@#   ",
" #....+----@@   ",
" #....+----@-@  ",
" #....+----@@@@ ",
" #....+-------@ ",
" #....+-----=-@ ",
" #....+-----$=@ ",
" #....+-$$$$$,$ ",
" #....+-$,,,,,,$",
" #....+-$$$$$,$ ",
" #....+-----$=@ ",
" ++...+-----=-@ ",
"   ++.+@@@@@@@@ ",
"     ++         "
};
