/* XPM */
static const char *OUTPUT_XPM[] = {
"16 16 8 1",
"  c None",
"# c #181818",
"+ c #555555",
"= c #B1B1BA",
". c #E4F4F4",
"$ c #225D8D",
"- c #1C79C1",
", c #38C5FF",
"            -   ",
" ##=========$-# ",
" #+.....$$$$$,$ ",
" #+.....$,,,,,,$",
" #+.....$$$$$,$ ",
" #+.........$-# ",
" #+.........-+# ",
" #+=........=+# ",
" #++++++++++++# ",
" #+##########+# ",
" #+#======#+#+# ",
" #+#=##===#+#+# ",
" #+#=##===#+#+# ",
"  ##=##===#+#+# ",
"   #++++++##### ",
"                "
};
