/* XPM */
static const char *PRINT_DISABLED_XPM[] = {
"16 16 7 1",
"  c None",
". c #505050",
"# c #9C9C9C",
"= c #FAFAFA",
"@ c #ACACAC",
"$ c #C2C2C2",
"+ c #F9F9F9",
"                ",
"                ",
"##############  ",
"#==========$=#  ",
"#=.........@$#  ",
"#=.........@=@  ",
"#=.....$$$@@==@ ",
"#=.....$+++====@",
"#=.....$$$@@==@ ",
"#=.........@=@  ",
"#=.........@$#  ",
"#==========$=#  ",
"##############  ",
"                ",
"                ",
"                "
};
