/* XPM */
static const char *PRIORITY_XPM[] = {
"16 16 3 1",
"  c None",
"# c #A85605",
". c #F77F07",
"                ",
"       #        ",
"       #        ",
"      #.#       ",
"      #.#       ",
"     #...#      ",
"######...###### ",
" #...........#  ",
"  ##.......##   ",
"   ##.....##    ",
"    #.....#     ",
"    #.....#     ",
"   #..###..#    ",
"   #.#   #.#    ",
"  ###     ###   ",
"                "
};
