/* XPM */
static const char *RAINBOW_XPM[] = {
"16 16 17 1",
"  c None",
"R c #CD001B",
"O c #CD7100",
"Y c #CDBA00",
"G c #00B204",
"B c #007BCD",
"I c #51446A",
"V c #CD4576",
"r c #FF004D",
"o c #FFA300",
"y c #FFEC27",
"g c #00E436",
"b c #29ADFF",
"i c #83769C",
"v c #FF77A8",
"t c #96F23A",
"h c #00CC9C",
"          rrrrR ",
"        rrooooO ",
"      rrooyyyyY ",
"     rooyyggggG ",
"    royyggbbbbB ",
"   roytghbiiiiI ",
"  roytghbivvvvV ",
"  royghbiv      ",
" royghbiv       ",
" roygbiv        ",
"roygbiv         ",
"roygbiv         ",
"roygbiv         ",
"roygbiv         ",
"ROYGBIV         ",
"                "
};
