/* XPM */
static const char *REFORMAT_DISABLED_XPM[] = {
"16 16 8 1",
"  c None",
". c #505050",
"1 c #DDDDDD",
"2 c #CDCDCD",
"3 c #C4C4C4",
"4 c #B4B4B4",
"5 c #888888",
"6 c #707070",
" .......555.... ",
".6....6...5.....",
"...5....555.6...",
".5.55.........6.",
"......5..44.....",
".4.44...4.4.4.5.",
"....4...44......",
".4....4.......4.",
"........33..4...",
".4.33.3.333...3.",
"...3....3.3.4...",
".3....2.......1.",
"....2....1..3...",
".1.22.....1.....",
"........111.2...",
" .............. "
};
