/* XPM */
static const char *RELOAD_DISABLED_XPM[] = {
"16 16 4 1",
"  c None",
"# c #9F9F9F",
"+ c #AAAAAA",
". c #C8C8C8",
"                ",
" +######        ",
"  #....# +##    ",
"   #...# #..#.  ",
"  #....# #...#  ",
" +...#.#  #...+ ",
" #..+ ##   +..# ",
" #..#  +   #..# ",
" #..#      #..# ",
" #..+      +..# ",
" +...#    #...+ ",
"  #...+##+...#  ",
"  .#........#.  ",
"   .#......#.   ",
"     +####+     ",
"                "
};
