/* XPM */
static const char *RESIZE_DISABLED_XPM[] = {
"16 16 4 1",
"  c None",
"# c #858585",
"+ c #939393",
". c #BBBBBB",
"+###+      +###+",
"#..#        #..#",
"#..+# +  + #+..#",
"##+.+##  ##+.+##",
"+ #+..#  #..+# +",
"   #..#  #..#   ",
"  +###+  +###+  ",
"                ",
"                ",
"  +###+  +###+  ",
"   #..#  #..#   ",
"+ #+..#  #..+# +",
"##+.+##  ##+.+##",
"#..+# +  + #+..#",
"#..#        #..#",
"+###+      +###+"
};
