/* XPM */
static const char *SAVE_DISABLED_XPM[] = {
"16 16 5 1",
"  c None",
"# c #606060",
"+ c #888888",
"= c #C6C6C6",
". c #EFEFEF",
"                ",
" ##==========## ",
" #+..........+# ",
" #+..........+# ",
" #+..........+# ",
" #+..........+# ",
" #+..........+# ",
" #+=........=+# ",
" #++++++++++++# ",
" #+##########+# ",
" #+#======#+#+# ",
" #+#=##===#+#+# ",
" #+#=##===#+#+# ",
"  ##=##===#+#+# ",
"   #++++++##### ",
"                "
};
