/* XPM */
static const char *SHIFT_XPM[] = {
"16 16 5 1",
"  c None",
"# c #7A4D91",
"+ c #A471BE",
"= c #BC89D5",
". c #D7A4F0",
"       #        ",
"      #.#       ",
"     +...+      ",
"    =##.##=     ",
"   =  #.#  =    ",
"  +#  #.#  #+   ",
" #.####.####.#  ",
"#.............# ",
" #.####.####.#  ",
"  +#  #.#  #+   ",
"   =  #.#  =    ",
"    =##.##=     ",
"     +...+      ",
"      #.#       ",
"       #        ",
"                "
};
