/* XPM */
static const char *SHIFT_TILESET_XPM[] = {
"16 16 4 1",
"  c None",
"# c #7A4D91",
"+ c #A471BE",
". c #D7A4F0",
"       #        ",
"      #.#       ",
"     #...#      ",
"    +.....+     ",
"   +###.###+    ",
"      #.#       ",
"      #.#       ",
"      #.#       ",
"      #.#       ",
"      #.#       ",
"      #.#       ",
"   +###.###+    ",
"    +.....+     ",
"     #...#      ",
"      #.#       ",
"       #        "
};
