/* XPM */
static const char *SUCCESS_XPM[] = {
"48 48 4 1",
"  c None",
"# c #000000",
". c #009000",
"= c #FFFFFF",
"                   ##########                   ",
"                ###..........###                ",
"              ##................##              ",
"            ##....................##            ",
"          ##........................##          ",
"         #............................#         ",
"        #..............................#        ",
"       #................................#       ",
"      #..................................#      ",
"     #....................................#     ",
"    #......................................#    ",
"    #..............................==......#    ",
"   #..............................====......#   ",
"   #.............................======.....#   ",
"  #.............................========.....#  ",
"  #............................=========.....#  ",
" #............................=========.......# ",
" #...........................=========........# ",
" #..........................=========.........# ",
"#..........................=========...........#",
"#.........................=========............#",
"#........................=========.............#",
"#.......................=========..............#",
"#..........==..........=========...............#",
"#.........====........=========................#",
"#........======......=========.................#",
"#.......========....=========..................#",
"#.......=========..=========...................#",
"#........==================....................#",
" #........================....................# ",
" #.........==============.....................# ",
" #..........============......................# ",
"  #..........==========......................#  ",
"  #...........========.......................#  ",
"   #...........======.......................#   ",
"   #............====........................#   ",
"    #............==........................#    ",
"    #......................................#    ",
"     #....................................#     ",
"      #..................................#      ",
"       #................................#       ",
"        #..............................#        ",
"         #............................#         ",
"          ##........................##          ",
"            ##....................##            ",
"              ##................##              ",
"                ###..........###                ",
"                   ##########                   "
};
