/* XPM */
static const char *TILESET_WIDTH_XPM[] = {
"16 16 5 1",
"  c None",
"# c #225D8D",
"+ c #1C79C1",
"= c #848484",
". c #38C5FF",
"                ",
"=              =",
"                ",
"=   +      +   =",
"   +#      #+   ",
"= #.#      #.# =",
" #..########..# ",
"#..............#",
" #..########..# ",
"= #.#      #.# =",
"   +#      #+   ",
"=   +      +   =",
"                ",
"=              =",
"                ",
"                "
};
