/* XPM */
static const char *X_FLIP_XPM[] = {
"16 16 7 1",
"  c None",
"# c #5A7C9D",
"+ c #7294AD",
". c #A1C3D9",
"@ c #7B9DBE",
"= c #93B5CE",
"- c #C2E4FA",
"                ",
"                ",
"      @ #       ",
"     =@ #+      ",
"     @@ ##      ",
"    ==@ #++     ",
"    @-@ #.#     ",
"   ==-@ #.++    ",
"   @--@ #..#    ",
"  ==--@ #..++   ",
"  @---@ #...#   ",
" ==---@ #...++  ",
" @@@@@@ ######  ",
"                ",
"                ",
"                "
};
