/* XPM */
static const char *Y_FLIP_DISABLED_XPM[] = {
"16 16 7 1",
"  c None",
"# c #9E9E9E",
"+ c #ADADAD",
". c #CCCCCC",
"@ c #B7B7B7",
"= c #C6C6C6",
"- c #E5E5E5",
"                ",
"           =@   ",
"         =@=@   ",
"       =@=--@   ",
"     =@=----@   ",
"   =@=------@   ",
"  @@@@@@@@@@@   ",
"                ",
"  ###########   ",
"   +#+......#   ",
"     +#+....#   ",
"       +#+..#   ",
"         +#+#   ",
"           +#   ",
"                ",
"                "
};
