/* XPM */
static const char *ZOOM_IN_XPM[] = {
"16 16 6 1",
"  c None",
"# c #7A7A7A",
"= c #B8B8BC",
"^ c #CBDDED",
". c #E9F0F7",
"$ c #2446AB",
"        #####   ",
"       #=^..=#  ",
"      #^^.....# ",
"     #=^^.$...=#",
"     #^^^^$^^^^#",
"     #^^$$$$$^^#",
"     #^^..$...^#",
"     #=^..$...=#",
"     =#^......# ",
"    =#=#=^^^=#  ",
"   =#=#=#####   ",
"  =#=#=         ",
" =#=#=          ",
" #=#=           ",
" =#=            ",
"                "
};
